#!OML:ASF E:/inclinewalkrobotboard/Project1/Captureday1/Session1/subject1.ASF
:FULLY-SPECIFIED
:DEGREES
288
root 0 0 0 1.5868655906358042 16.281428172151443 -8.873855603443864
lowerback 5.963279426205185 1.5926466985228593 -1.9129077073225036
upperback 0.10754592099055582 1.9313218488326651 -1.7715178318725515
thorax -3.343879215290122 1.0147385691133797 -0.832297603561791
lowerneck -11.531249968412787 -7.190213009591737 -8.37600563136863
upperneck 7.310038507162852 -9.420510115867014 8.362869873272095
head 5.379164413761795 -4.3173438757241 3.4484680124104576
rclavicle -1.0311632322857343E-14 3.089916213121807E-16
rhumerus 3.9012089148364755 -12.81591862335974 -67.34868896066263
rradius 19.109258645561702
rwrist 57.60396808933237
rhand -7.591345880495833 21.889233619107795
rfingers 7.125019999999913
rthumb 18.310856902444225 -7.806669008160306
lclavicle -6.47666514108432E-15 8.284696953435092E-15
lhumerus -25.58764694820826 3.9752398198592864 78.53226899752484
lradius 38.164556580870304
lwrist -37.538086541203725
lhand -9.849315654602663 14.57264972348273
lfingers 7.0453230859508125
lthumb 15.82004233889365 70.25289445118857
rfemur -14.323038881915092 0.30757722951532784 22.940736301904035
rtibia 71.85934564011801
rfoot 10.915423960494529 -2.100708832082761
rtoes 13.712199860854083
lfemur 0.765878567327837 -2.340383936045935 -29.73263947434922
ltibia 23.18675598287706
lfoot -18.528043532470296 2.5036555166956873
ltoes 7.889557609438912
289
root 0 0 0 0.9708413035400336 14.827499517261192 -8.5363537824905
lowerback 5.71211078713432 1.5523289585035367 -1.9931105135880696
upperback 0.01997745108927651 1.882728425745353 -1.7673136943424304
thorax -3.290100272997721 0.9890964132733506 -0.7772470899019936
lowerneck -11.656996230622433 -7.173357258496521 -8.446779452296564
upperneck 7.484695592866416 -9.433958169583832 8.601243908356505
head 5.446062962266126 -4.313919248029135 3.5312374070368246
rclavicle -1.0289844116597577E-14 3.135649704105139E-16
rhumerus 3.8293752316845104 -12.75530747502791 -67.39799496332023
rradius 19.04105376018361
rwrist 57.632852980413304
rhand -7.564589528485017 21.883086502261097
rfingers 7.125019999999912
rthumb 18.336533900321776 -7.812193347722189
lclavicle -6.375559677248564E-15 8.389969859808525E-15
lhumerus -25.772964774824988 3.6417157667499183 78.800394191149
lradius 38.4770233104514
lwrist -37.508525270727745
lhand -9.880907005711594 14.58055710967113
lfingers 7.044039837277421
lthumb 15.785350441652461 70.63466573057225
rfemur -14.189391740450015 0.37681672580883685 22.95170493629323
rtibia 71.75395742593739
rfoot 10.976266628507695 -2.066464480557938
rtoes 13.863772815424175
lfemur 1.3300753913484602 -2.3545961682274097 -29.81728583251089
ltibia 22.97854872609522
lfoot -18.673187337342576 2.4784049433166704
ltoes 7.555100041237333
290
root 0 0 0 0.3901785356616192 13.343115679766846 -8.210523455197288
lowerback 5.458464533707459 1.520014417281385 -2.0719085778872826
upperback -0.07394818539744774 1.8435237213519944 -1.7697480374874983
thorax -3.240341378139691 0.9683155090988624 -0.7306835094100796
lowerneck -11.788531672623211 -7.136940488710625 -8.51992931138578
upperneck 7.613296200466929 -9.418579880873175 8.821744642580683
head 5.497160401608403 -4.296275889800327 3.610020422869308
rclavicle -1.0275521558832555E-14 3.1841813541150727E-16
rhumerus 3.7903288178732204 -12.707122711607559 -67.42600285988709
rradius 18.98469792945798
rwrist 57.650903074030595
rhand -7.542492115574998 21.873607749668267
rfingers 7.125019999999912
rthumb 18.35766769608631 -7.821227449855179
lclavicle -6.3276642059169246E-15 8.455294266306564E-15
lhumerus -25.936176821645322 3.310259593247192 79.04442693042151
lradius 38.79427665453969
lwrist -37.44856109380501
lhand -9.882727283770752 14.594781206015929
lfingers 7.042921064056423
lthumb 15.779865874932113 70.99925762309164
rfemur -14.097640234825457 0.434024159649228 22.953932396874713
rtibia 71.68610672930811
rfoot 11.007453958821905 -2.0468189684237323
rtoes 14.002309209961895
lfemur 1.8446161048792131 -2.3688023334478245 -29.891648753632914
ltibia 22.771341482228408
lfoot -18.81528193371847 2.4604163118960773
ltoes 7.2340447250960445
291
root 0 0 0 -0.2065822485158253 11.747631119761145 -7.8813973774509325
lowerback 5.180867697340713 1.4908770143309273 -2.1563952037568574
upperback -0.18100290540348585 1.8077685328636552 -1.7787679102163865
thorax -3.189741610288544 0.9493111059133001 -0.6878562513502235
lowerneck -11.935070089060925 -7.084969423819624 -8.59902238504342
upperneck 7.712171410722266 -9.382460765363184 9.042015004410391
head 5.539498690434575 -4.267697091920011 3.69027583964127
rclavicle -1.0267885170738417E-14 3.242126905967302E-16
rhumerus 3.7802515977022306 -12.668365929011427 -67.43512603580943
rradius 18.932824625379205
rwrist 57.66315488845095
rhand -7.523332121639617 21.86161174371776
rfingers 7.125019999999912
rthumb 18.375916689456442 -7.832993676090567
lclavicle -6.32267412237551E-15 8.488239839684662E-15
lhumerus -26.085913743986353 2.976289982915034 79.27281500436523
lradius 39.11451321596584
lwrist -37.368405386584385
lhand -9.853382303637817 14.613651904477363
lfingers 7.041924097466532
lthumb 15.804761195820253 71.3404583071859
rfemur -14.048266022600549 0.48076629254815373 22.94773565277017
rtibia 71.64125329309329
rfoot 11.007474138978964 -2.0421081882338097
rtoes 14.1225490182209
lfemur 2.3329964355812987 -2.3831603429991435 -29.96011530998436
ltibia 22.562716566691034
lfoot -18.95770957680206 2.447672070042695
ltoes 6.9183518920919465
